<svg id="Capa_1" data-name="Capa 1" xmlns="http://www.w3.org/2000/svg" xmlns:xlink="http://www.w3.org/1999/xlink" viewBox="0 0 230.26 183.04"><defs><style>.cls-1{fill:none;}.cls-2{fill-rule:evenodd;}.cls-3{clip-path:url(#clip-path);}.cls-4{clip-path:url(#clip-path-2);}</style><clipPath id="clip-path" transform="translate(-0.5 -0.5)"><rect class="cls-1" x="0.62" y="33.42" width="60" height="56"/></clipPath><clipPath id="clip-path-2" transform="translate(-0.5 -0.5)"><rect class="cls-1" x="170.62" y="33.42" width="60" height="56"/></clipPath></defs><path class="cls-2" d="M86.2,81.78A58.11,58.11,0,0,1,77.43,73a.17.17,0,0,0-.14-.07.17.17,0,0,0-.15.06l-1.43,1.41c-1,1.06.12,3.94,2.63,6.45s5.39,3.69,6.45,2.63l1.43-1.42a.18.18,0,0,0,0-.16A.19.19,0,0,0,86.2,81.78Zm47.74-28.06c.58-.27,1.17-.52,1.77-.73a17,17,0,0,1,7.56-.81,17,17,0,0,1,1.89.34c.62.15,1.23.34,1.84.55a16,16,0,0,1,1.75.76A17,17,0,0,1,152,55.91a16.49,16.49,0,0,1,2.66,2.75,17,17,0,0,1,1.08,1.58,16.53,16.53,0,0,1,1.58,3.48,17,17,0,0,1,.49,1.86,14.83,14.83,0,0,1,.27,1.89,16.92,16.92,0,0,1-.1,3.83,17.34,17.34,0,0,1-.37,1.88,17.58,17.58,0,0,1-1.38,3.57,14.35,14.35,0,0,1-1,1.64A17.09,17.09,0,0,1,154,79.92c-.42.48-.86.94-1.33,1.38a19,19,0,0,1-1.47,1.22,16.94,16.94,0,0,1-1.6,1,16.64,16.64,0,0,1-3.52,1.52,14.82,14.82,0,0,1-1.86.45,15.18,15.18,0,0,1-1.9.24c-.64,0-1.27,0-1.91,0a17.4,17.4,0,0,1-1.91-.19c-.63-.11-1.26-.25-1.87-.42a16.24,16.24,0,0,1-1.82-.62,18.23,18.23,0,0,1-1.73-.82,15,15,0,0,1-1.62-1,13.28,13.28,0,0,1-1.5-1.19,16.18,16.18,0,0,1-2.55-2.85,15,15,0,0,1-1-1.62,16.14,16.14,0,0,1-.83-1.73,16.8,16.8,0,0,1-.62-1.81,14.87,14.87,0,0,1-.42-1.87,17.22,17.22,0,0,1,0-5.73,14.82,14.82,0,0,1,.45-1.86.12.12,0,0,1,.12-.12.11.11,0,0,1,.08,0,6.27,6.27,0,0,0,5.78.08,6,6,0,0,0,1.61-1.17,6.7,6.7,0,0,0,.69-.81.11.11,0,0,0,0-.13.09.09,0,0,0-.13,0h0a6.89,6.89,0,0,1-6.7-.26A77.81,77.81,0,0,1,115,53.48a.19.19,0,0,0-.25,0l0,0-5,5a.19.19,0,0,0,0,.27h0c6.2,7.23,9.5,13.73,7.6,15.63C115,76.71,105.87,71.3,96.87,62.3q-1.22-1.21-2.34-2.43a.09.09,0,0,0-.13,0h0a.11.11,0,0,0,0,.13c4,7.22,15.51,16.26,19.4,17.71a.13.13,0,0,1,.1.1.15.15,0,0,1,0,.13l-4.27,4.27c-2.5,2.51-11.5-2.41-20.3-11a.12.12,0,0,0-.15,0,.11.11,0,0,0,0,.15h0a44.17,44.17,0,0,0,12.89,12.18.19.19,0,0,1,.07.11.13.13,0,0,1,0,.12l-2,2C97.81,88.07,90,84,82.66,76.68S71.27,61.53,73.59,59.21l3.76-3.76a.18.18,0,0,0,0-.22c-1.09-2.6-1.25-4.6-.27-5.59l7.83-7.82c1.9-1.9,8.4,1.39,15.64,7.59a.19.19,0,0,0,.25,0l0,0,5-5a.19.19,0,0,0,0-.27h0a78.56,78.56,0,0,1-8.21-11.45,6.86,6.86,0,0,1-.25-6.7.09.09,0,1,0-.13-.13,5.84,5.84,0,0,0-.81.68,6.21,6.21,0,0,0-1.17,1.61,6.36,6.36,0,0,0,.07,5.78.13.13,0,0,1-.08.2,16.68,16.68,0,0,1-3.77.68,16.38,16.38,0,0,1-3.83-.18,17.34,17.34,0,0,1-1.87-.41c-.62-.18-1.22-.38-1.82-.62a18.31,18.31,0,0,1-1.73-.83,16.93,16.93,0,0,1-1.63-1,19.1,19.1,0,0,1-1.5-1.19c-.48-.43-.93-.89-1.36-1.36s-.82-1-1.19-1.51a15.14,15.14,0,0,1-1-1.63,18.23,18.23,0,0,1-.82-1.73c-.24-.59-.45-1.2-.63-1.81a17,17,0,0,1-.41-1.88,17.4,17.4,0,0,1-.19-1.91,15.38,15.38,0,0,1,0-1.92,11.1,11.1,0,0,1,.24-1.9,17,17,0,0,1,.46-1.87,15,15,0,0,1,.66-1.8,16.23,16.23,0,0,1,.86-1.72,14.75,14.75,0,0,1,1-1.6,17.44,17.44,0,0,1,1.22-1.48A17.79,17.79,0,0,1,80.84,4a17.24,17.24,0,0,1,1.65-1,18.35,18.35,0,0,1,1.75-.79,17,17,0,0,1,1.83-.59A17.31,17.31,0,0,1,89.86,1a15.4,15.4,0,0,1,1.92.06,17.37,17.37,0,0,1,1.9.27,17,17,0,0,1,1.86.49A17.17,17.17,0,0,1,99,3.45a17,17,0,0,1,1.58,1.08,17.59,17.59,0,0,1,1.46,1.26c.46.45.89.92,1.3,1.41s.78,1,1.13,1.55a15.28,15.28,0,0,1,1,1.67,16.1,16.1,0,0,1,.76,1.76,16.9,16.9,0,0,1,.55,1.84,14.93,14.93,0,0,1,.33,1.89,17.61,17.61,0,0,1,0,3.84c-.07.63-.18,1.26-.31,1.89a16.8,16.8,0,0,1-.53,1.84,16.22,16.22,0,0,1-.73,1.78.18.18,0,0,0,.06.25h0a80.17,80.17,0,0,1,10.87,7.9.19.19,0,0,0,.25,0l0,0,5-5a.19.19,0,0,0,0-.27h0c-6.2-7.23-9.49-13.73-7.59-15.63L122,4.68c1-1,3-.81,5.7.33l3.86-3.86c2.32-2.32,10.14,1.74,17.47,9.07s11.39,15.15,9.07,17.47l-2,2a.13.13,0,0,1-.12,0,.12.12,0,0,1-.11-.07,44.29,44.29,0,0,0-12.23-12.84.1.1,0,0,0-.14,0v.14c8.62,8.8,13.53,17.8,11,20.31l-4.29,4.28a.11.11,0,0,1-.13,0,.14.14,0,0,1-.11-.09c-1.44-3.9-10.48-15.44-17.7-19.4h-.13s0,.09,0,.13c.81.75,1.62,1.53,2.44,2.35,9,9,14.4,18.16,12.08,20.48-1.9,1.9-8.4-1.39-15.64-7.59a.19.19,0,0,0-.25,0l0,0-5,5a.19.19,0,0,0,0,.25l0,0a78.69,78.69,0,0,1,7.87,10.89.19.19,0,0,0,.09.26A.2.2,0,0,0,133.94,53.72ZM83.62,66.48a.13.13,0,0,0,0-.2h0A49.67,49.67,0,0,1,79,58.64a.27.27,0,0,0-.12-.09.13.13,0,0,0-.13.05l-4.07,4.07a.14.14,0,0,0,0,.15,16.28,16.28,0,0,0,1.08,2.54,35.14,35.14,0,0,0,3.49,5.3.14.14,0,0,0,.19,0,.12.12,0,0,0,0,0Zm4.51-10.57a.13.13,0,0,0,0-.18l0,0A31.38,31.38,0,0,1,84,47.59a.15.15,0,0,0-.12-.1.12.12,0,0,0-.14,0l-5.59,5.59a.14.14,0,0,0,0,.15,34.22,34.22,0,0,0,4.11,8.28.13.13,0,0,0,.18.05l0-.05ZM130.92,6.42a.15.15,0,0,0,0,.13.13.13,0,0,0,.08.12,49.67,49.67,0,0,1,7.64,4.66.13.13,0,0,0,.2,0h0L143,7.14a.15.15,0,0,0,0-.21l0,0a35.08,35.08,0,0,0-5.3-3.48,15.42,15.42,0,0,0-2.54-1.09.15.15,0,0,0-.16,0Zm-11,5.3A31.38,31.38,0,0,1,128,15.84a.13.13,0,0,0,.2,0h0l5.65-5.66a.13.13,0,0,0,.05-.18.12.12,0,0,0-.05-.05,34.22,34.22,0,0,0-8.28-4.11.22.22,0,0,0-.16,0l-5.58,5.59a.14.14,0,0,0,0,.15.21.21,0,0,0,0,.17Zm-22.51.91a2.55,2.55,0,0,0,2.72-4.16L100,8.28a14.67,14.67,0,0,0-1.09-1,13.57,13.57,0,0,0-9.33-3,3.65,3.65,0,0,0-1.25.31,3.49,3.49,0,0,0-1.77,1.8,3.25,3.25,0,0,0-.28,1.26v.07a3.61,3.61,0,0,0,.22,1.42,3.82,3.82,0,0,0,.32.64,4.81,4.81,0,0,0,.44.57,4.06,4.06,0,0,0,.55.46,3.92,3.92,0,0,0,.64.34,3.31,3.31,0,0,0,.68.2,2.92,2.92,0,0,0,.72.06,21.61,21.61,0,0,1,7.6,1.25Zm4,15.46a59,59,0,0,1,11.91,8.53c.05.05.1.05.14,0l2-2a.1.1,0,0,0,0-.12l0,0C108.31,28.41,103,26.22,102,26.11h-.07a1,1,0,0,0-.47,2ZM101,58.16l29.48-29.48a.16.16,0,0,0,0-.24s0,0,0,0a11.86,11.86,0,0,0-3.77-2.7.17.17,0,0,0-.21,0L98.06,54.14a.2.2,0,0,0,0,.21,11.86,11.86,0,0,0,2.7,3.77.18.18,0,0,0,.24.09l0,0Zm29.64-.41a1,1,0,1,0,2-.45h0v-.07c-.12-1-2.29-6.33-8.37-13.48h-.15l-1.95,2v.14a58.25,58.25,0,0,1,8.55,11.89Zm17.69,5.84a2.56,2.56,0,0,0,2.72-4.17l-.19-.18a12.79,12.79,0,0,0-1.08-1,13.65,13.65,0,0,0-9.33-3,3.38,3.38,0,0,0-1.25.31,3.2,3.2,0,0,0-1,.73,3.54,3.54,0,0,0-.72,1.07,3.44,3.44,0,0,0-.28,1.26v.08a4.21,4.21,0,0,0,0,.71,2.77,2.77,0,0,0,.18.7,3.19,3.19,0,0,0,.32.64,3.39,3.39,0,0,0,.44.56,3.44,3.44,0,0,0,.55.46,3.33,3.33,0,0,0,.64.35,4.07,4.07,0,0,0,.68.2,4.37,4.37,0,0,0,.72.06,21.6,21.6,0,0,1,7.68,1.25Zm-3-58.5a59.05,59.05,0,0,1,8.77,8.76.16.16,0,0,0,.14.08.23.23,0,0,0,.16-.06l1.42-1.43c1.06-1.06-.12-3.94-2.63-6.45s-5.4-3.68-6.45-2.63l-1.43,1.43a.19.19,0,0,0,0,.15.19.19,0,0,0,0,.18Z" transform="translate(-0.5 -0.5)"/><g class="cls-3"><path class="cls-2" d="M45,45.65a.17.17,0,0,1,0,.21.14.14,0,0,1-.19.09l-7.34-1.61a.16.16,0,0,0-.21.07v0a.16.16,0,0,0,.07.22h0L56.83,57.93a.16.16,0,0,0,.23,0h0a.16.16,0,0,0,0-.23h0L47.22,49a.15.15,0,0,1,0-.2.19.19,0,0,1,.18-.11l5.22.39a.17.17,0,0,0,.18-.1.16.16,0,0,0-.06-.2l-21-15.43a.16.16,0,0,0-.23,0h0a.16.16,0,0,0,0,.23h0Zm15.31,34.6-11.59-6.4a.32.32,0,0,1-.14-.43.33.33,0,0,1,.23-.17l9.88-2.11a.3.3,0,0,0,.26-.3.31.31,0,0,0-.21-.33L1,48.82a.3.3,0,0,0-.26,0A.33.33,0,0,0,.52,49a.36.36,0,0,0,0,.25.39.39,0,0,0,.18.18L42.93,69a.33.33,0,0,1-.12.62l-14.09,1a.29.29,0,0,0-.31.27h0a.31.31,0,0,0,.23.36L60,80.87a.3.3,0,0,0,.38-.17h0a.3.3,0,0,0-.08-.42l0,0ZM37.89,88.42,32.62,87a.15.15,0,0,1-.13-.14.17.17,0,0,1,.08-.17L35.46,85a.17.17,0,0,0,.08-.19.16.16,0,0,0-.15-.13L18,83.42a.14.14,0,0,0-.18.1.08.08,0,0,0,0,0,.17.17,0,0,0,.14.2h0l11.65,2.16a.14.14,0,0,1,.14.14.17.17,0,0,1-.09.18l-3.41,1.87a.15.15,0,0,0-.08.19.15.15,0,0,0,.16.13l11.51.36a.16.16,0,0,0,.18-.14h0a.15.15,0,0,0-.06-.2A.12.12,0,0,0,37.89,88.42Z" transform="translate(-0.5 -0.5)"/></g><g class="cls-4"><path class="cls-2" d="M186.32,45.65a.17.17,0,0,0,0,.21.14.14,0,0,0,.19.09l7.34-1.61a.16.16,0,0,1,.21.07v0a.16.16,0,0,1-.07.22h0L174.44,57.93a.16.16,0,0,1-.23,0h0a.16.16,0,0,1,0-.23h0L184.05,49a.17.17,0,0,0,0-.2.19.19,0,0,0-.18-.11l-5.22.39a.17.17,0,0,1-.18-.1.16.16,0,0,1,.06-.2l20.94-15.47a.16.16,0,0,1,.23,0h0a.16.16,0,0,1,0,.23h0ZM171,80.25l11.59-6.4a.32.32,0,0,0,.14-.43.33.33,0,0,0-.23-.17l-9.89-2.11a.3.3,0,0,1-.26-.3.31.31,0,0,1,.21-.33L230.3,48.82a.3.3,0,0,1,.26,0,.33.33,0,0,1,.18.17.36.36,0,0,1,0,.25.39.39,0,0,1-.18.18L188.33,69a.33.33,0,0,0,.12.62l14.09,1a.29.29,0,0,1,.31.27h0a.31.31,0,0,1-.23.36l-31.36,9.59a.33.33,0,0,1-.39-.26.36.36,0,0,1,.13-.33Zm22.37,8.2L198.61,87a.15.15,0,0,0,.13-.14.17.17,0,0,0-.08-.17L195.77,85a.15.15,0,0,1-.08-.19.16.16,0,0,1,.15-.13l17.42-1.22a.14.14,0,0,1,.18.1.08.08,0,0,1,0,0,.17.17,0,0,1-.14.2h0l-11.63,2.17a.14.14,0,0,0-.14.14.17.17,0,0,0,.09.18L205,88.12a.15.15,0,0,1,.08.19.15.15,0,0,1-.16.13l-11.51.36a.16.16,0,0,1-.18-.14h0a.16.16,0,0,1,.05-.21l.07,0Z" transform="translate(-0.5 -0.5)"/></g><path d="M51.62,124.7a7.28,7.28,0,0,0-7.28-7.28H32.42a.71.71,0,0,0-.8.61.61.61,0,0,0,0,.19v38.39a.81.81,0,0,0,.81.81H44.29a7.33,7.33,0,0,0,7.33-7.33V141a3.56,3.56,0,0,0-3-3.55v-.05a3.56,3.56,0,0,0,3-3.55Zm-6,7.79c0,1.24-.75,1.93-2.14,1.93H38.62v-10h4.86c1.45,0,2.14.69,2.14,2Zm0,16.93c0,1.34-.75,2-2.14,2H38.62v-10h4.86c1.45,0,2.14.69,2.14,2Z" transform="translate(-0.5 -0.5)"/><path d="M83.62,118.26c0-.52-.2-.84-.79-.84H64.39a.74.74,0,0,0-.77.7.48.48,0,0,0,0,.12V157.6a.75.75,0,0,0,.65.82H82.83c.59,0,.79-.32.79-.85v-5.3c0-.58-.2-.85-.79-.85H70.62v-10h9.23c.48,0,.77-.32.77-.89v-5.22c0-.57-.29-.89-.77-.89H70.62v-10H82.83c.59,0,.79-.37.79-.89Z" transform="translate(-0.5 -0.5)"/><path d="M102.82,117.42c-4.65,0-7.2,2.44-7.2,7v12.15A1.77,1.77,0,0,0,97,138.39l11.67,3.88v7.15c0,1.36-.76,2-2.19,2h-2.62c-1.37,0-2.19-.66-2.19-2v-4.17a.81.81,0,0,0-.81-.81H95.44a.73.73,0,0,0-.82.61,1,1,0,0,0,0,.17v5.16c0,4.61,2.63,7.06,7.41,7.06h5.31a7.28,7.28,0,0,0,7.28-7.28V138.42a1.84,1.84,0,0,0-1.28-1.87l-11.72-3.9v-7.14c0-1.36.71-2.09,1.88-2.09h2.24c1.27,0,1.88.73,1.88,2.09v4.1a.81.81,0,0,0,.81.81h6.39a.7.7,0,0,0,.8-.59.61.61,0,0,0,0-.19V124.7a7.28,7.28,0,0,0-7.28-7.28Z" transform="translate(-0.5 -0.5)"/><path d="M126.52,117.42c-.5-.1-.81.2-.9.71v5.06c.09.5.9.23.9.23h6.1v33.19a.73.73,0,0,0,.64.81.54.54,0,0,0,.18,0h5.37a.81.81,0,0,0,.81-.81V123.42h5.51s.81.27.49-.23v-5.06c.32-.51.07-.81-.49-.71Z" transform="translate(-0.5 -0.5)"/><path d="M157.44,117.42a.72.72,0,0,0-.82.61.61.61,0,0,0,0,.19v38.4a.72.72,0,0,0,.63.8.61.61,0,0,0,.19,0h5.37a.81.81,0,0,0,.81-.81V118.23a.81.81,0,0,0-.81-.81Z" transform="translate(-0.5 -0.5)"/><path d="M199.09,157.42c.6,0,.8-.3.7-.85l-8.3-38.45a.78.78,0,0,0-.85-.7h-6.95a.78.78,0,0,0-.85.7l-8.3,38.45c-.15.55.1.85.65.85h5.35a.77.77,0,0,0,.8-.7l1.35-7.3h8.93l1.4,7.3a.77.77,0,0,0,.8.7Zm-8.71-14H183.9l3.24-17.65Z" transform="translate(-0.5 -0.5)"/><path d="M85.62,174.42h-6v3h5v2h-5v4h-3v-11h9Z" transform="translate(-0.5 -0.5)"/><path d="M90.62,183.42h-3v-11h3Z" transform="translate(-0.5 -0.5)"/><path d="M103.62,174.42h-3v9h-3v-9h-4v-2h10Z" transform="translate(-0.5 -0.5)"/><path d="M117.62,183.42h-2.77l-5.23-7v7h-3v-11h2.81l5.19,6.64v-6.64h3Z" transform="translate(-0.5 -0.5)"/><path d="M130.62,174.42h-6v2h5v3h-5v2h6v2h-9v-11h9Z" transform="translate(-0.5 -0.5)"/><path d="M138.62,171.89a8,8,0,0,1,4.5,1.26l-1.05,2.27a9.64,9.64,0,0,0-1.92-.84,5.79,5.79,0,0,0-1.74-.35c-.83,0-1.25.28-1.25.83a1,1,0,0,0,.61.87,7.31,7.31,0,0,0,1.52.57,16.07,16.07,0,0,1,1.78.58,3.35,3.35,0,0,1,1.5,1.07,2.9,2.9,0,0,1,.63,1.89,3,3,0,0,1-1.3,2.57,5.58,5.58,0,0,1-3.27.92,8.39,8.39,0,0,1-2.81-.49,7.71,7.71,0,0,1-2.41-1.34l1.13-2.23a7.1,7.1,0,0,0,2,1.23,5.59,5.59,0,0,0,2.09.48,2,2,0,0,0,1.1-.25.82.82,0,0,0,.39-.75,1,1,0,0,0-.45-.78,3,3,0,0,0-1.11-.48c-.45-.1-.94-.24-1.46-.41a10.69,10.69,0,0,1-1.45-.58,2.64,2.64,0,0,1-1.12-1,2.81,2.81,0,0,1-.44-1.62,3,3,0,0,1,1.23-2.5A5.38,5.38,0,0,1,138.62,171.89Z" transform="translate(-0.5 -0.5)"/><path d="M151,171.89a8,8,0,0,1,4.5,1.26l-1.09,2.27a9.64,9.64,0,0,0-1.92-.84,5.79,5.79,0,0,0-1.74-.35c-.83,0-1.25.28-1.25.83a1,1,0,0,0,.61.87,7.31,7.31,0,0,0,1.52.57,16.07,16.07,0,0,1,1.78.58,3.35,3.35,0,0,1,1.5,1.07,2.9,2.9,0,0,1,.63,1.89,3,3,0,0,1-1.3,2.57,5.58,5.58,0,0,1-3.27.92,8.39,8.39,0,0,1-2.81-.49,7.71,7.71,0,0,1-2.41-1.34l1.13-2.23a7.1,7.1,0,0,0,2,1.23,5.59,5.59,0,0,0,2.09.48,2,2,0,0,0,1.1-.25.82.82,0,0,0,.39-.75,1,1,0,0,0-.45-.78,3,3,0,0,0-1.11-.48c-.45-.1-.94-.24-1.46-.41a10.69,10.69,0,0,1-1.45-.58,2.64,2.64,0,0,1-1.12-1,2.81,2.81,0,0,1-.44-1.62,3,3,0,0,1,1.23-2.5A5.36,5.36,0,0,1,151,171.89Z" transform="translate(-0.5 -0.5)"/></svg>